<svg xmlns="http://www.w3.org/2000/svg" width="36" height="36" viewBox="0 0 36 36">
  <g fill="none" fill-rule="evenodd">
    <ellipse cx="18" cy="18.24" fill="#FFC375" rx="18" ry="17.6"/>
    <g stroke="#FFF" stroke-linecap="round" stroke-width=".85" transform="translate(8 8)">
      <path d="M8.336 13.4782609L2.82208696 15.0043478C1.46469565 15.5130435.565565217 16.8113043.565565217 18.2608696L.565565217 20.4347826 20.5655652 20.4347826 20.5655652 18.2608696C20.5655652 16.8113043 19.6655652 15.5130435 18.3081739 15.0043478L12.8116522 13.4782609M7.95652174 8.26217391C7.95652174 7.78217391 8.34608696 7.8273913 8.82608696 7.8273913 9.30608696 7.8273913 9.69565217 7.78217391 9.69565217 8.26217391M11.4347826 8.26217391C11.4347826 7.78217391 11.8243478 7.8273913 12.3043478 7.8273913 12.7843478 7.8273913 13.173913 7.78217391 13.173913 8.26217391"/>
      <path stroke-linejoin="round" d="M6.2173913 5.65217391L6.2173913 7.39130435C4.91304348 7.39130435 4.91304348 10 6.2173913 10 6.2173913 12.6086957 9.26086957 14.3713043 10.5652174 14.3713043M14.9130435 5.65217391L14.9130435 7.39130435C16.2173913 7.39130435 16.2173913 10 14.9130435 10 14.9130435 12.6086957 11.8695652 14.3713043 10.5652174 14.3713043"/>
      <polygon stroke-linejoin="round" points="14.043 16.087 16.652 16.087 16.652 17.826 15.348 18.696 14.043 17.826"/>
      <polygon stroke-linejoin="round" points="10.13 1.739 11 1.739 11 2.609 10.565 3.043 10.13 2.609"/>
      <path stroke-linejoin="round" d="M10.5652174 6.52173913C5.34782609 6.52173913 5.34782609 4.34782609 5.34782609 4.34782609L15.7826087 4.34782609C15.7826087 4.34782609 15.7826087 6.52173913 10.5652174 6.52173913L10.5652174 6.52173913zM16.6521739 4.34782609L4.47826087 4.34782609 4.47826087 2.60869565C7.52173913 2.60869565 7.52173913.434782609 10.5652174.434782609 13.6086957.434782609 14.0434783 2.60869565 16.6521739 2.60869565L16.6521739 4.34782609 16.6521739 4.34782609z"/>
      <line x1="9.261" x2="9.261" y1="14.185" y2="20.434" stroke-linejoin="round"/>
      <line x1="11.87" x2="11.87" y1="14.185" y2="20.434" stroke-linejoin="round"/>
    </g>
  </g>
</svg>
